<svg width="500" height="500" viewBox="0 0 500 500" fill="none" xmlns="http://www.w3.org/2000/svg">
<circle cx="250" cy="250" r="250" fill="#27412F"/>
<path fill-rule="evenodd" clip-rule="evenodd" d="M398.019 157.423V302.263C398.039 304.003 397.854 316.558 388.894 325.68C383.207 331.468 375.488 334.404 365.949 334.404H267.358C265.855 357.607 246.516 376.025 222.957 376.025C199.395 376.025 180.056 357.607 178.557 334.404H77.9622C74.0815 334.404 70.9375 331.258 70.9375 327.374C70.9375 323.491 74.0815 320.345 77.9622 320.345H92.4931V282.258C92.4931 263.125 95.469 244.468 101.337 226.807C106.151 212.311 112.33 199.998 119.694 190.21C134.034 171.155 149.004 156.327 164.197 146.138C180.706 135.066 197.489 129.453 214.081 129.453H367.688C372.37 129.453 376.845 130.323 380.987 132.033C391.97 136.57 398.019 145.588 398.019 157.423ZM214.081 143.512C179.646 143.512 149.851 173.506 130.919 198.666C124.469 207.234 119.002 218.193 114.669 231.237C111.102 241.975 108.704 253.127 107.486 264.548H285.004V185.072H355.787V264.551H383.973V157.423C383.973 151.318 381.32 147.38 375.627 145.029C373.19 144.023 370.521 143.512 367.688 143.512H214.081ZM297.793 197.87V320.341H342.995V197.87H297.793ZM106.617 277.462C106.572 279.056 106.542 280.654 106.542 282.258V320.348H179.875C184.835 301.177 202.271 286.975 222.957 286.975C243.644 286.975 261.079 301.177 266.039 320.348H285V277.462H106.617ZM191.362 331.5C191.362 348.932 205.535 363.117 222.957 363.117C240.38 363.117 254.552 348.932 254.552 331.5C254.552 314.065 240.38 299.883 222.957 299.883C205.535 299.883 191.362 314.065 191.362 331.5ZM365.949 320.345C371.62 320.345 375.827 318.886 378.813 315.889C383.808 310.871 383.967 302.89 383.97 302.405L383.967 302.321L383.97 302.308V277.459H355.784V320.345H365.949ZM162.598 187.539H245.295V239.391H162.598V187.539ZM175.497 226.483H232.392V200.45H175.497V226.483Z" fill="#E5C079"/>
</svg>
