<svg width="500" height="500" viewBox="0 0 500 500" fill="none" xmlns="http://www.w3.org/2000/svg">
<circle cx="250" cy="250" r="250" fill="#E5C079"/>
<mask id="path-2-outside-1_3388_1161" maskUnits="userSpaceOnUse" x="69.9375" y="128.453" width="329" height="248" fill="black">
<rect fill="white" x="69.9375" y="128.453" width="329" height="248"/>
<path fill-rule="evenodd" clip-rule="evenodd" d="M398.019 157.423V302.263C398.039 304.003 397.854 316.558 388.894 325.68C383.207 331.468 375.488 334.404 365.949 334.404H267.358C265.855 357.607 246.516 376.025 222.957 376.025C199.395 376.025 180.056 357.607 178.557 334.404H77.9622C74.0815 334.404 70.9375 331.258 70.9375 327.374C70.9375 323.491 74.0815 320.345 77.9622 320.345H92.4931V282.258C92.4931 263.125 95.469 244.468 101.337 226.807C106.151 212.311 112.33 199.998 119.694 190.21C134.034 171.155 149.004 156.327 164.197 146.138C180.706 135.066 197.489 129.453 214.081 129.453H367.688C372.37 129.453 376.845 130.323 380.987 132.033C391.97 136.57 398.019 145.588 398.019 157.423ZM214.081 143.512C179.646 143.512 149.851 173.506 130.919 198.666C124.469 207.234 119.002 218.193 114.669 231.237C111.102 241.975 108.704 253.127 107.486 264.548H285.004V185.072H355.787V264.551H383.973V157.423C383.973 151.318 381.32 147.38 375.627 145.029C373.19 144.023 370.521 143.512 367.688 143.512H214.081ZM297.793 197.87V320.341H342.995V197.87H297.793ZM106.617 277.462C106.572 279.056 106.542 280.654 106.542 282.258V320.348H179.875C184.835 301.177 202.271 286.975 222.957 286.975C243.644 286.975 261.079 301.177 266.039 320.348H285V277.462H106.617ZM191.362 331.5C191.362 348.932 205.535 363.117 222.957 363.117C240.38 363.117 254.552 348.932 254.552 331.5C254.552 314.065 240.38 299.883 222.957 299.883C205.535 299.883 191.362 314.065 191.362 331.5ZM365.949 320.345C371.62 320.345 375.827 318.886 378.813 315.889C383.808 310.871 383.967 302.89 383.97 302.405L383.967 302.321L383.97 302.308V277.459H355.784V320.345H365.949ZM162.598 187.539H245.295V239.391H162.598V187.539ZM175.497 226.483H232.392V200.45H175.497V226.483Z"/>
</mask>
<path fill-rule="evenodd" clip-rule="evenodd" d="M398.019 157.423V302.263C398.039 304.003 397.854 316.558 388.894 325.68C383.207 331.468 375.488 334.404 365.949 334.404H267.358C265.855 357.607 246.516 376.025 222.957 376.025C199.395 376.025 180.056 357.607 178.557 334.404H77.9622C74.0815 334.404 70.9375 331.258 70.9375 327.374C70.9375 323.491 74.0815 320.345 77.9622 320.345H92.4931V282.258C92.4931 263.125 95.469 244.468 101.337 226.807C106.151 212.311 112.33 199.998 119.694 190.21C134.034 171.155 149.004 156.327 164.197 146.138C180.706 135.066 197.489 129.453 214.081 129.453H367.688C372.37 129.453 376.845 130.323 380.987 132.033C391.97 136.57 398.019 145.588 398.019 157.423ZM214.081 143.512C179.646 143.512 149.851 173.506 130.919 198.666C124.469 207.234 119.002 218.193 114.669 231.237C111.102 241.975 108.704 253.127 107.486 264.548H285.004V185.072H355.787V264.551H383.973V157.423C383.973 151.318 381.32 147.38 375.627 145.029C373.19 144.023 370.521 143.512 367.688 143.512H214.081ZM297.793 197.87V320.341H342.995V197.87H297.793ZM106.617 277.462C106.572 279.056 106.542 280.654 106.542 282.258V320.348H179.875C184.835 301.177 202.271 286.975 222.957 286.975C243.644 286.975 261.079 301.177 266.039 320.348H285V277.462H106.617ZM191.362 331.5C191.362 348.932 205.535 363.117 222.957 363.117C240.38 363.117 254.552 348.932 254.552 331.5C254.552 314.065 240.38 299.883 222.957 299.883C205.535 299.883 191.362 314.065 191.362 331.5ZM365.949 320.345C371.62 320.345 375.827 318.886 378.813 315.889C383.808 310.871 383.967 302.89 383.97 302.405L383.967 302.321L383.97 302.308V277.459H355.784V320.345H365.949ZM162.598 187.539H245.295V239.391H162.598V187.539ZM175.497 226.483H232.392V200.45H175.497V226.483Z" fill="#27412F"/>
<path d="M398.019 302.263H397.919V302.264L398.019 302.263ZM388.894 325.68L388.966 325.75H388.966L388.894 325.68ZM267.358 334.404V334.304H267.264L267.258 334.397L267.358 334.404ZM178.557 334.404L178.657 334.397L178.651 334.304H178.557V334.404ZM92.4931 320.345V320.445H92.5931V320.345H92.4931ZM101.337 226.807L101.432 226.838L101.432 226.838L101.337 226.807ZM119.694 190.21L119.614 190.15L119.614 190.15L119.694 190.21ZM164.197 146.138L164.253 146.221L164.253 146.221L164.197 146.138ZM380.987 132.033L381.026 131.941V131.941L380.987 132.033ZM130.919 198.666L130.999 198.726L130.999 198.726L130.919 198.666ZM114.669 231.237L114.764 231.268V231.268L114.669 231.237ZM107.486 264.548L107.387 264.537L107.375 264.648H107.486V264.548ZM285.004 264.548V264.648H285.104V264.548H285.004ZM285.004 185.072V184.972H284.904V185.072H285.004ZM355.787 185.072H355.887V184.972H355.787V185.072ZM355.787 264.551H355.687V264.651H355.787V264.551ZM383.973 264.551V264.651H384.073V264.551H383.973ZM375.627 145.029L375.665 144.936L375.665 144.936L375.627 145.029ZM297.793 320.341H297.693V320.441H297.793V320.341ZM297.793 197.87V197.77H297.693V197.87H297.793ZM342.995 320.341V320.441H343.095V320.341H342.995ZM342.995 197.87H343.095V197.77H342.995V197.87ZM106.617 277.462V277.362H106.52L106.517 277.46L106.617 277.462ZM106.542 320.348H106.442V320.448H106.542V320.348ZM179.875 320.348V320.448H179.953L179.972 320.373L179.875 320.348ZM266.039 320.348L265.943 320.373L265.962 320.448H266.039V320.348ZM285 320.348V320.448H285.1V320.348H285ZM285 277.462H285.1V277.362H285V277.462ZM378.813 315.889L378.884 315.96V315.96L378.813 315.889ZM383.97 302.405L384.07 302.406L384.07 302.402L383.97 302.405ZM383.967 302.321L383.87 302.297L383.866 302.311L383.867 302.325L383.967 302.321ZM383.97 302.308L384.067 302.333L384.07 302.321V302.308H383.97ZM383.97 277.459H384.07V277.359H383.97V277.459ZM355.784 277.459V277.359H355.684V277.459H355.784ZM355.784 320.345H355.684V320.445H355.784V320.345ZM245.295 187.539H245.395V187.439H245.295V187.539ZM162.598 187.539V187.439H162.498V187.539H162.598ZM245.295 239.391V239.491H245.395V239.391H245.295ZM162.598 239.391H162.498V239.491H162.598V239.391ZM232.392 226.483V226.583H232.492V226.483H232.392ZM175.497 226.483H175.397V226.583H175.497V226.483ZM232.392 200.45H232.492V200.35H232.392V200.45ZM175.497 200.45V200.35H175.397V200.45H175.497ZM398.019 302.263H398.119V157.423H398.019H397.919V302.263H398.019ZM388.894 325.68L388.966 325.75C397.955 316.598 398.139 304.007 398.119 302.262L398.019 302.263L397.919 302.264C397.939 303.999 397.753 316.518 388.823 325.61L388.894 325.68ZM365.949 334.404V334.504C375.51 334.504 383.256 331.56 388.966 325.75L388.894 325.68L388.823 325.61C383.158 331.375 375.466 334.304 365.949 334.304V334.404ZM267.358 334.404V334.504H365.949V334.404V334.304H267.358V334.404ZM222.957 376.025V376.125C246.569 376.125 265.952 357.666 267.458 334.41L267.358 334.404L267.258 334.397C265.759 357.549 246.463 375.925 222.957 375.925V376.025ZM178.557 334.404L178.457 334.41C179.96 357.666 199.342 376.125 222.957 376.125V376.025V375.925C199.448 375.925 180.153 357.549 178.657 334.397L178.557 334.404ZM77.9622 334.404V334.504H178.557V334.404V334.304H77.9622V334.404ZM70.9375 327.374H70.8375C70.8375 331.313 74.0262 334.504 77.9622 334.504V334.404V334.304C74.1368 334.304 71.0375 331.203 71.0375 327.374H70.9375ZM77.9622 320.345V320.245C74.0262 320.245 70.8375 323.436 70.8375 327.374H70.9375H71.0375C71.0375 323.546 74.1368 320.445 77.9622 320.445V320.345ZM92.4931 320.345V320.245H77.9622V320.345V320.445H92.4931V320.345ZM92.4931 282.258H92.3931V320.345H92.4931H92.5931V282.258H92.4931ZM101.337 226.807L101.242 226.775C95.3707 244.447 92.3931 263.115 92.3931 282.258H92.4931H92.5931C92.5931 263.135 95.5674 244.489 101.432 226.838L101.337 226.807ZM119.694 190.21L119.614 190.15C112.242 199.948 106.059 212.272 101.242 226.775L101.337 226.807L101.432 226.838C106.244 212.35 112.417 200.048 119.774 190.27L119.694 190.21ZM164.197 146.138L164.142 146.055C148.937 156.251 133.959 171.089 119.614 190.15L119.694 190.21L119.773 190.27C134.109 171.222 149.071 156.402 164.253 146.221L164.197 146.138ZM214.081 129.453V129.353C197.465 129.353 180.663 134.975 164.142 146.055L164.197 146.138L164.253 146.221C180.748 135.158 197.512 129.553 214.081 129.553V129.453ZM367.688 129.453V129.353H214.081V129.453V129.553H367.688V129.453ZM380.987 132.033L381.026 131.941C376.87 130.225 372.382 129.353 367.688 129.353V129.453V129.553C372.357 129.553 376.819 130.421 380.949 132.126L380.987 132.033ZM398.019 157.423H398.119C398.119 145.547 392.046 136.493 381.026 131.941L380.987 132.033L380.949 132.126C391.895 136.647 397.919 145.629 397.919 157.423H398.019ZM130.919 198.666L130.999 198.726C140.462 186.15 152.637 172.37 166.746 161.734C180.856 151.098 196.893 143.612 214.081 143.612V143.512V143.412C196.834 143.412 180.756 150.923 166.626 161.574C152.496 172.225 140.308 186.022 130.839 198.606L130.919 198.666ZM114.669 231.237L114.764 231.268C119.095 218.232 124.557 207.284 130.999 198.726L130.919 198.666L130.839 198.606C124.381 207.185 118.91 218.154 114.574 231.205L114.669 231.237ZM107.486 264.548L107.585 264.558C108.803 253.145 111.199 241.999 114.764 231.268L114.669 231.237L114.574 231.205C111.005 241.95 108.605 253.11 107.387 264.537L107.486 264.548ZM285.004 264.548V264.448H107.486V264.548V264.648H285.004V264.548ZM285.004 185.072H284.904V264.548H285.004H285.104V185.072H285.004ZM355.787 185.072V184.972H285.004V185.072V185.172H355.787V185.072ZM355.787 264.551H355.887V185.072H355.787H355.687V264.551H355.787ZM383.973 264.551V264.451H355.787V264.551V264.651H383.973V264.551ZM383.973 157.423H383.873V264.551H383.973H384.073V157.423H383.973ZM375.627 145.029L375.589 145.121C378.422 146.291 380.491 147.853 381.852 149.874C383.213 151.895 383.873 154.385 383.873 157.423H383.973H384.073C384.073 154.356 383.406 151.824 382.018 149.762C380.629 147.7 378.525 146.117 375.665 144.936L375.627 145.029ZM367.688 143.512V143.612C370.509 143.612 373.165 144.121 375.589 145.121L375.627 145.029L375.665 144.936C373.216 143.925 370.534 143.412 367.688 143.412V143.512ZM214.081 143.512V143.612H367.688V143.512V143.412H214.081V143.512ZM297.793 320.341H297.893V197.87H297.793H297.693V320.341H297.793ZM342.995 320.341V320.241H297.793V320.341V320.441H342.995V320.341ZM342.995 197.87H342.895V320.341H342.995H343.095V197.87H342.995ZM297.793 197.87V197.97H342.995V197.87V197.77H297.793V197.87ZM106.542 282.258H106.642C106.642 280.655 106.672 279.059 106.717 277.465L106.617 277.462L106.517 277.46C106.472 279.054 106.442 280.653 106.442 282.258H106.542ZM106.542 320.348H106.642V282.258H106.542H106.442V320.348H106.542ZM179.875 320.348V320.248H106.542V320.348V320.448H179.875V320.348ZM222.957 286.975V286.875C202.224 286.875 184.75 301.109 179.779 320.323L179.875 320.348L179.972 320.373C184.921 301.245 202.318 287.075 222.957 287.075V286.975ZM266.039 320.348L266.136 320.323C261.165 301.109 243.691 286.875 222.957 286.875V286.975V287.075C243.597 287.075 260.994 301.245 265.943 320.373L266.039 320.348ZM285 320.348V320.248H266.039V320.348V320.448H285V320.348ZM285 277.462H284.9V320.348H285H285.1V277.462H285ZM106.617 277.462V277.562H285V277.462V277.362H106.617V277.462ZM222.957 363.117V363.017C205.59 363.017 191.462 348.877 191.462 331.5H191.362H191.262C191.262 348.987 205.479 363.217 222.957 363.217V363.117ZM254.552 331.5H254.452C254.452 348.877 240.325 363.017 222.957 363.017V363.117V363.217C240.435 363.217 254.652 348.987 254.652 331.5H254.552ZM222.957 299.883V299.983C240.325 299.983 254.452 314.12 254.452 331.5H254.552H254.652C254.652 314.01 240.435 299.783 222.957 299.783V299.883ZM191.362 331.5H191.462C191.462 314.12 205.59 299.983 222.957 299.983V299.883V299.783C205.479 299.783 191.262 314.01 191.262 331.5H191.362ZM378.813 315.889L378.742 315.818C375.781 318.791 371.603 320.245 365.949 320.245V320.345V320.445C371.637 320.445 375.873 318.982 378.884 315.96L378.813 315.889ZM383.97 302.405L383.87 302.405C383.868 302.642 383.828 304.75 383.166 307.423C382.504 310.097 381.222 313.327 378.742 315.818L378.813 315.889L378.884 315.96C381.399 313.433 382.694 310.163 383.36 307.471C384.027 304.778 384.068 302.653 384.07 302.406L383.97 302.405ZM383.967 302.321L383.867 302.325L383.87 302.409L383.97 302.405L384.07 302.402L384.066 302.317L383.967 302.321ZM383.97 302.308L383.873 302.284L383.87 302.297L383.967 302.321L384.064 302.346L384.067 302.333L383.97 302.308ZM383.97 277.459H383.87V302.308H383.97H384.07V277.459H383.97ZM355.784 277.459V277.559H383.97V277.459V277.359H355.784V277.459ZM355.784 320.345H355.884V277.459H355.784H355.684V320.345H355.784ZM365.949 320.345V320.245H355.784V320.345V320.445H365.949V320.345ZM245.295 187.539V187.439H162.598V187.539V187.639H245.295V187.539ZM245.295 239.391H245.395V187.539H245.295H245.195V239.391H245.295ZM162.598 239.391V239.491H245.295V239.391V239.291H162.598V239.391ZM162.598 187.539H162.498V239.391H162.598H162.698V187.539H162.598ZM232.392 226.483V226.383H175.497V226.483V226.583H232.392V226.483ZM232.392 200.45H232.292V226.483H232.392H232.492V200.45H232.392ZM175.497 200.45V200.55H232.392V200.45V200.35H175.497V200.45ZM175.497 226.483H175.597V200.45H175.497H175.397V226.483H175.497Z" fill="#27412F" mask="url(#path-2-outside-1_3388_1161)"/>
</svg>
