<svg xmlns="http://www.w3.org/2000/svg" viewBox="0 0 220 220" width="220" height="220">
  <defs><clipPath id="clipF"><circle cx="110" cy="110" r="86"></circle></clipPath></defs>
  <g clip-path="url(#clipF)">
    <rect x="20" y="20" width="180" height="180" fill="#EFE7D2"></rect>
    <circle cx="110" cy="118" r="37" fill="#C17C2C"></circle>
    <g stroke="#C17C2C" stroke-width="3.6" stroke-linecap="round"><line x1="110" y1="64" x2="110" y2="54"></line><line x1="78" y1="72" x2="71" y2="63"></line><line x1="142" y1="72" x2="149" y2="63"></line></g>
    <path d="M24,150 Q70,108 120,144 Q160,172 196,148 L196,196 L24,196 Z" fill="#27412E"></path>
    <path d="M24,168 Q86,134 146,160 Q172,172 196,165 L196,196 L24,196 Z" fill="#13271A"></path>
    <path d="M104,196 L116,196 L111,146 L109,146 Z" fill="#EFE7D2"></path>
  </g>
  <circle cx="110" cy="110" r="86" fill="none" stroke="#27412E" stroke-width="4"></circle>
</svg>